<svg width="24" height="24" viewBox="0 0 24 24" fill="none" xmlns="http://www.w3.org/2000/svg">
<path d="M20.2937 6.56422C21.0013 7.6445 21.5093 8.87095 21.7645 10.1894L20.7827 10.3794C20.8932 10.9502 20.9513 11.5409 20.9513 12.1464C20.9513 12.7519 20.8932 13.3426 20.7827 13.9133L21.7645 14.1034C21.5093 15.4218 21.0013 16.6483 20.2937 17.7286L19.4571 17.1806C18.8054 18.1756 17.9664 19.0323 16.9923 19.6989L17.557 20.5241C16.4863 21.2568 15.2676 21.7837 13.9559 22.049L13.7576 21.0688C13.1901 21.1836 12.6025 21.2439 12 21.2439C11.3976 21.2439 10.81 21.1836 10.2424 21.0688L10.0442 22.049C8.73251 21.7837 7.51376 21.2568 6.44307 20.5241L7.0078 19.6989C6.03371 19.0323 5.19466 18.1756 4.54295 17.1806L3.70642 17.7286C2.99883 16.6483 2.49076 15.4218 2.23558 14.1034L3.21736 13.9133C3.10689 13.3426 3.04883 12.7519 3.04883 12.1464C3.04883 11.5409 3.10689 10.9502 3.21736 10.3794L2.23558 10.1894C2.49076 8.87095 2.99883 7.6445 3.70642 6.56422L4.54295 7.11215C5.19466 6.11719 6.0337 5.26049 7.0078 4.59392L6.44307 3.76865C7.51376 3.03597 8.73251 2.50906 10.0442 2.24379L10.2424 3.22395C10.81 3.10918 11.3976 3.04883 12 3.04883C12.6025 3.04883 13.1901 3.10918 13.7576 3.22395L13.9559 2.24379C15.2676 2.50906 16.4863 3.03597 17.557 3.76865L16.9923 4.59392C17.9664 5.26049 18.8054 6.11719 19.4571 7.11215L20.2937 6.56422Z" fill="#41C283" stroke="#41C283" stroke-width="2" stroke-dasharray="5 5"/>
<circle opacity="0.2" cx="12" cy="12" r="11" fill="#41C283" stroke="#41C283" stroke-width="2" stroke-dasharray="5 5"/>
<g clip-path="url(#clip0_325_1365)">
<path d="M8.19531 12.3987L10.8012 15.11L15.8051 9.9188L15.0867 9.18311L10.8012 13.6282L8.90375 11.6578L8.19531 12.3987Z" fill="white"/>
</g>
<defs>
<clipPath id="clip0_325_1365">
<rect width="7.60976" height="7.90244" fill="white" transform="translate(8.19531 8.19531)"/>
</clipPath>
</defs>
</svg>
